<?xml version="1.0" encoding="utf-8"?>
<!-- Generator: Adobe Illustrator 21.0.0, SVG Export Plug-In . SVG Version: 6.00 Build 0)  -->
<svg version="1.1" id="Layer_1" xmlns="http://www.w3.org/2000/svg" xmlns:xlink="http://www.w3.org/1999/xlink" x="0px" y="0px"
	 viewBox="0 0 24 24" style="enable-background:new 0 0 24 24;" xml:space="preserve">
<style type="text/css">
	.st0{fill:#4E4E50;}
	.st1{fill:#F4792A;}
</style>
<g>
	<g>
		<path class="st0" d="M4.5,24C3.1,24,2,23,2,21.8c0-1.4,1-2.2,2.4-2.2c1.2,0,2,0.8,2.2,1.8H5.5c-0.2-0.4-0.6-0.8-1-0.8
			c-0.6,0-1,0.4-1,1.2c0,0.8,0.4,1.2,1,1.2c0.4,0,0.8-0.4,1-0.8h1.2C6.5,23.4,5.7,24,4.5,24L4.5,24z"/>
		<path class="st0" d="M11.2,23.2H9.6L9.4,24H7.9l1.8-4.5H11l1.8,4.5h-1.4L11.2,23.2z M10.4,20.9L10,22.4h1L10.4,20.9z"/>
		<path class="st0" d="M15.5,20.7v0.6h1.4v1h-1.4V24h-1.2v-4.5h2.8v1.2H15.5z"/>
		<path class="st0" d="M22,23v1h-2.8v-4.5H22v1h-1.6v0.6h1.4v1h-1.4v0.6H22V23z"/>
	</g>
	<g>
		<g>
			<path class="st1" d="M18.7,4.5c0.1-0.3,0.3-0.5,0.5-0.8c0.1-0.2,0.2-0.4,0.3-0.5c0.1-0.1,0.1-0.2,0.1-0.4c0-0.2-0.1-0.4-0.2-0.5
				c-0.2-0.1-0.4-0.2-0.7-0.2v-2c1,0,1.8,0.2,2.3,0.7c0.6,0.5,0.9,1,0.9,1.8c0,0.3-0.1,0.6-0.2,0.9c-0.1,0.3-0.3,0.5-0.5,0.8
				c-0.1,0.2-0.2,0.4-0.3,0.5c-0.1,0.1-0.1,0.2-0.1,0.4c0,0.2,0.1,0.4,0.2,0.5c0.2,0.1,0.4,0.2,0.7,0.2v2c-1,0-1.8-0.2-2.3-0.7
				c-0.6-0.5-0.9-1-0.9-1.8C18.5,5.1,18.6,4.8,18.7,4.5z"/>
		</g>
		<polygon class="st1" points="18.2,10.8 18.6,15.1 21.8,15.1 22.2,10.8 		"/>
		<g>
			<path class="st1" d="M13.9,12.3v2.9h-12L8.4,2.9H2.2V0h11.4L7,12.3L13.9,12.3L13.9,12.3z"/>
		</g>
	</g>
</g>
</svg>
